# xmcd
#
# Track frame offsets:
# 150
# 30361
# 56610
# 69942
# 83562
# 97451
# 109973
# 125062
# 143782
# 156042
#
# Disc length: 2335 seconds
#
#
# Revision: 0
# Processed by: cddbd v1.5.2PL0 Copyright (c) Steve Scherf et al.
# Submitted via: FreeRIP 2.53 
#
DISCID=85091d0a
DTITLE=Arthur Migliazza - Pumping Ivories
DYEAR=1900
DGENRE=Boogie Woogie
TTITLE0=Hallelujah Train
TTITLE1=St. Louis Blues
TTITLE2=Mess Around
TTITLE3=Tribute to the Crescent City
TTITLE4=Rockin' Pneumonia
TTITLE5=I Left My Heart In San Francisco
TTITLE6=Down the Road A Piece
TTITLE7=Junko Partner
TTITLE8=Honky Tonk Train Blues
TTITLE9=Tipitina
EXTD=
EXTT0=
EXTT1=
EXTT2=
EXTT3=
EXTT4=
EXTT5=
EXTT6=
EXTT7=
EXTT8=
EXTT9=
PLAYORDER=
